<?xml version="1.0" standalone="no"?>
<!DOCTYPE svg PUBLIC "-//W3C//DTD SVG 20010904//EN"
 "http://www.w3.org/TR/2001/REC-SVG-20010904/DTD/svg10.dtd">
<svg version="1.0" xmlns="http://www.w3.org/2000/svg"
 width="400.000000pt" height="400.000000pt" viewBox="0 0 400.000000 400.000000"
 preserveAspectRatio="xMidYMid meet">
<metadata>
Created by potrace 1.11, written by Peter Selinger 2001-2013
</metadata>
<g transform="translate(0.000000,400.000000) scale(0.100000,-0.100000)"
fill="#000000" stroke="none">
<path d="M1780 3989 c-41 -4 -122 -17 -179 -29 -639 -130 -1178 -569 -1438
-1170 -217 -503 -217 -1077 0 -1580 72 -168 177 -341 287 -475 80 -96 249
-259 345 -332 712 -537 1698 -537 2410 0 112 84 293 264 379 377 550 716 555
1706 13 2425 -73 96 -236 265 -332 345 -241 198 -555 347 -863 410 -190 38
-430 50 -622 29z m235 -636 c14 -21 25 -41 25 -46 0 -4 -25 -41 -55 -81 -52
-68 -55 -76 -55 -130 l0 -56 -24 15 c-22 15 -25 14 -55 -20 -20 -23 -31 -46
-31 -65 0 -29 2 -30 43 -30 24 0 48 5 55 12 9 9 12 5 12 -18 0 -20 -15 -46
-51 -89 -28 -33 -58 -64 -65 -68 -8 -4 -14 -13 -14 -19 0 -7 -12 -25 -27 -40
l-27 -29 76 -75 75 -76 -87 -87 c-64 -63 -95 -104 -120 -155 -32 -65 -34 -76
-38 -193 -5 -139 5 -191 50 -264 35 -58 85 -97 159 -124 l57 -20 -109 -98
c-60 -54 -109 -102 -109 -106 0 -5 52 -70 115 -146 l115 -137 0 -102 1 -101
98 -115 99 -115 -51 -65 c-28 -36 -65 -82 -82 -104 l-30 -38 -95 7 c-198 15
-399 74 -566 166 -40 21 -74 47 -77 57 -3 9 -17 50 -31 90 -14 41 -26 78 -26
83 0 5 18 20 41 35 37 23 41 28 35 57 -17 92 -17 108 -2 171 10 38 14 80 11
96 -9 42 -107 128 -185 162 -163 72 -160 69 -160 173 l0 81 -41 39 c-23 22
-65 72 -94 110 -29 39 -71 88 -94 110 -40 38 -42 39 -80 29 l-40 -11 6 50 c3
27 19 76 34 107 34 70 53 165 46 226 -10 92 49 183 192 296 66 52 180 114 352
191 47 22 57 34 72 96 21 90 98 172 241 257 76 45 93 39 31 -12 -109 -88 -110
-90 -96 -108 19 -23 62 -20 112 8 24 14 70 34 101 46 59 22 178 122 178 150 0
10 -24 12 -122 7 -68 -4 -134 -9 -148 -12 -14 -3 -5 2 20 11 77 27 231 52 322
53 l87 1 26 -37z m241 1 c74 -37 93 -57 73 -80 -8 -10 -30 -12 -89 -7 -64 5
-83 3 -108 -12 -37 -22 -65 -80 -60 -126 l3 -34 73 -3 c73 -3 74 -3 67 20 -4
13 -14 31 -22 40 -9 10 -13 24 -10 33 10 25 43 17 72 -16 21 -26 25 -40 23
-78 l-3 -46 -35 4 c-95 13 -112 8 -144 -35 -17 -22 -41 -54 -53 -70 l-22 -29
0 109 -1 109 60 83 c33 45 60 86 60 91 0 5 -11 25 -25 46 l-26 37 47 0 c34 0
68 -10 120 -36z m-234 -520 c5 -39 4 -39 -56 -49 l-38 -6 37 45 c21 25 41 46
45 46 4 0 10 -16 12 -36z m200 -91 c2 -29 8 -39 23 -41 11 -2 35 -11 52 -19
30 -14 35 -14 65 6 70 44 73 45 106 21 28 -21 33 -21 88 -10 33 6 83 18 112
27 57 16 82 13 82 -12 0 -21 -25 -68 -44 -84 -8 -7 -13 -18 -10 -26 4 -10 -19
-15 -101 -20 -129 -9 -201 -2 -235 23 -32 24 -85 42 -123 42 -53 0 -151 -31
-194 -61 -50 -35 -53 -35 -83 -4 l-23 25 37 0 c51 0 71 13 102 66 29 49 95
104 125 104 13 0 19 -9 21 -37z m886 -126 c63 -31 71 -33 104 -21 33 11 38 10
56 -9 51 -54 160 -335 173 -442 35 -311 -33 -628 -194 -895 -52 -85 -163 -224
-224 -280 -100 -92 -125 -112 -206 -165 -205 -133 -427 -210 -671 -231 l-80
-7 34 44 c19 24 56 70 82 102 27 32 48 60 48 62 0 2 -47 59 -105 127 l-105
123 0 100 0 100 -109 130 -110 130 42 40 c196 185 192 182 269 200 120 27 201
31 253 10 58 -22 69 -41 85 -145 9 -59 24 -109 51 -164 l39 -80 -6 -125 c-4
-98 -2 -138 10 -181 9 -30 24 -85 33 -122 9 -38 21 -68 27 -68 23 0 176 83
228 124 72 57 155 157 184 221 23 49 94 294 94 323 0 7 30 102 66 210 77 232
91 325 55 361 -11 11 -32 21 -44 21 -30 0 -208 180 -255 259 l-33 53 101 -91
c108 -97 139 -109 186 -76 49 34 70 153 44 247 -10 36 -13 38 -72 49 -59 12
-136 57 -146 87 -6 20 24 14 96 -21z m-2118 -2175 c8 -44 18 -84 22 -87 3 -4
18 13 32 38 22 37 25 52 20 93 -4 36 -3 45 5 34 6 -8 11 -25 11 -37 0 -33 13
-28 34 12 11 19 23 35 29 35 5 0 -3 -20 -18 -45 -22 -38 -25 -53 -19 -90 3
-25 9 -45 13 -45 3 0 31 41 61 90 30 49 59 90 63 90 12 0 10 -4 -58 -113 -33
-53 -65 -96 -72 -97 -6 0 -15 20 -19 45 -3 25 -10 45 -14 45 -5 0 -21 -20 -37
-45 -15 -25 -33 -45 -39 -45 -5 0 -18 41 -27 90 -10 50 -20 97 -24 106 -4 12
-2 15 8 12 9 -3 20 -35 29 -86z m784 47 c-7 -39 -6 -41 14 -30 30 16 72 14 79
-5 5 -15 -12 -122 -22 -132 -13 -13 -15 10 -5 48 22 82 -10 115 -62 67 -17
-16 -28 -39 -32 -70 -4 -26 -12 -47 -18 -47 -5 0 -8 10 -5 23 3 12 13 59 23
105 17 83 40 116 28 41z m1097 22 c13 -11 21 -23 17 -27 -5 -4 -16 0 -26 9
-37 34 -101 17 -127 -33 -32 -62 -11 -123 43 -123 63 0 114 65 60 76 -17 3
-14 5 10 6 33 1 33 1 26 -36 -8 -46 -23 -78 -24 -50 0 17 -2 17 -22 3 -12 -9
-37 -16 -55 -16 -91 0 -99 136 -10 190 41 25 78 25 108 1z m109 9 c0 -5 -4
-10 -10 -10 -5 0 -10 5 -10 10 0 6 5 10 10 10 6 0 10 -4 10 -10z m-1314 -25
c-5 -19 -2 -25 11 -26 15 0 14 -2 -3 -9 -17 -6 -24 -20 -29 -57 -8 -64 -7 -68
16 -66 11 2 17 -1 14 -7 -6 -10 -48 -14 -57 -5 -3 3 0 34 8 68 9 47 10 64 1
69 -9 6 -9 8 0 8 7 0 15 11 19 25 3 14 11 25 16 25 6 0 7 -11 4 -25z m1412
-28 c12 -3 11 -5 -5 -6 -18 -1 -24 -10 -33 -56 -12 -58 -7 -80 16 -71 8 3 14
1 14 -4 0 -6 -13 -10 -30 -10 -34 0 -35 5 -19 81 9 42 9 53 -2 60 -11 7 -10 9
4 9 10 0 17 8 17 18 0 30 15 36 18 9 2 -14 11 -28 20 -30z m-1692 -26 c21 -41
8 -51 -62 -51 -55 0 -64 -3 -64 -18 0 -41 47 -55 88 -26 12 8 22 11 22 5 0
-15 -35 -31 -69 -31 -62 0 -81 64 -35 120 23 27 32 31 68 28 31 -2 43 -8 52
-27z m167 -45 c-3 -70 -8 -89 -21 -69 -5 8 -13 9 -22 3 -8 -6 -29 -10 -47 -10
-33 0 -49 22 -38 53 9 21 59 40 91 34 30 -5 43 15 23 39 -10 12 -23 14 -54 10
-29 -5 -36 -3 -25 4 8 6 33 9 55 8 l40 -3 -2 -69z m501 52 c33 -47 23 -58 -54
-58 -72 0 -79 -5 -60 -41 13 -23 47 -25 78 -3 12 8 22 11 22 5 0 -15 -35 -31
-68 -31 -42 0 -66 31 -58 74 13 68 106 103 140 54z m89 5 c-6 -17 -5 -17 15 0
11 10 29 17 39 15 13 -3 9 -8 -19 -20 -32 -15 -37 -22 -49 -72 -7 -31 -16 -56
-21 -56 -11 0 -11 0 8 81 8 38 20 69 24 69 5 0 7 -8 3 -17z m263 -8 c46 -70
-65 -165 -128 -108 -22 20 -23 45 -3 83 19 36 41 49 82 50 24 0 37 -7 49 -25z
m90 10 c-5 -13 -2 -13 19 1 13 8 36 14 52 12 26 -3 28 -6 27 -48 0 -53 -11
-100 -22 -100 -5 0 -4 24 1 54 16 85 -4 107 -57 65 -16 -13 -28 -34 -32 -58
-6 -40 -20 -69 -27 -61 -8 8 26 150 36 150 5 0 7 -7 3 -15z m456 -60 c-9 -41
-20 -75 -25 -75 -9 0 -4 44 14 113 18 68 26 38 11 -38z"/>
<path d="M1298 449 c-10 -5 -22 -19 -28 -29 -10 -19 -7 -20 50 -20 64 0 76 12
44 44 -18 18 -41 20 -66 5z"/>
<path d="M1459 382 c-28 -24 -20 -52 16 -52 24 0 65 31 65 49 0 10 -24 21 -45
21 -7 0 -23 -8 -36 -18z"/>
<path d="M1962 444 c-40 -28 -28 -44 33 -44 46 0 55 3 55 18 0 41 -47 55 -88
26z"/>
<path d="M2319 447 c-47 -36 -48 -102 -2 -113 22 -6 32 -1 55 25 33 36 35 61
10 84 -22 20 -41 21 -63 4z"/>
</g>
</svg>
